<?xml version="1.0" standalone="no"?>
<!DOCTYPE svg PUBLIC "-//W3C//DTD SVG 20010904//EN"
 "http://www.w3.org/TR/2001/REC-SVG-20010904/DTD/svg10.dtd">
<svg version="1.0" xmlns="http://www.w3.org/2000/svg"
 width="962.000000pt" height="962.000000pt" viewBox="0 0 962.000000 962.000000"
 preserveAspectRatio="xMidYMid meet">
<metadata>
Created by potrace 1.11, written by Peter Selinger 2001-2013
</metadata>
<g transform="translate(0.000000,962.000000) scale(0.100000,-0.100000)"
fill="#000000" stroke="none">
<path d="M3550 9523 c-30 -8 -65 -15 -77 -16 -13 -1 -23 -5 -23 -8 0 -5 -31
-14 -68 -20 -4 0 -13 -5 -19 -11 -7 -6 -13 -8 -13 -4 0 5 -100 -27 -180 -59
-19 -7 -66 -25 -105 -40 -38 -14 -79 -30 -90 -35 -183 -80 -261 -116 -266
-123 -3 -5 -8 -8 -10 -7 -6 3 -60 -22 -88 -39 -13 -9 -31 -16 -39 -17 -8 -2
-19 -9 -23 -16 -5 -7 -9 -9 -9 -5 0 4 -6 3 -12 -3 -7 -6 -65 -40 -128 -77
-112 -64 -129 -74 -201 -120 -51 -33 -54 -36 -179 -123 -63 -45 -117 -85 -120
-89 -3 -4 -20 -18 -39 -31 -106 -74 -272 -221 -451 -400 -118 -119 -171 -175
-282 -304 -42 -50 -159 -199 -177 -226 -9 -14 -20 -30 -26 -37 -5 -7 -16 -19
-23 -27 -12 -15 -177 -266 -220 -336 -12 -19 -27 -47 -33 -62 -6 -16 -15 -28
-20 -28 -5 0 -9 -9 -9 -19 0 -11 -4 -21 -9 -23 -9 -3 -151 -280 -191 -373 -12
-27 -27 -63 -35 -80 -26 -58 -67 -160 -70 -175 -2 -8 -4 -16 -5 -17 -2 -2 -3
-6 -5 -10 -1 -5 -7 -21 -13 -36 -14 -32 -102 -300 -106 -319 -2 -7 -8 -33 -15
-58 -7 -25 -15 -52 -17 -60 -11 -46 -56 -238 -60 -255 -2 -11 -6 -33 -9 -50
-2 -16 -7 -43 -11 -60 -4 -16 -7 -42 -8 -57 0 -16 -3 -28 -6 -28 -3 0 -6 -10
-6 -22 -1 -13 -4 -43 -8 -68 -3 -25 -8 -72 -11 -105 -3 -33 -8 -71 -10 -85
-26 -140 -25 -753 0 -961 9 -73 16 -126 20 -164 6 -48 10 -79 19 -125 8 -49
15 -89 22 -130 3 -19 10 -53 16 -75 6 -22 12 -49 14 -60 3 -21 41 -179 48
-205 3 -8 9 -29 15 -47 5 -17 7 -34 3 -37 -3 -3 -1 -6 5 -6 5 0 10 -6 11 -12
2 -28 23 -99 63 -208 22 -63 41 -121 42 -127 0 -7 4 -13 9 -13 4 0 7 -3 6 -7
-1 -9 3 -21 40 -113 15 -36 27 -67 28 -70 1 -8 28 -65 34 -70 3 -3 6 -12 8
-20 5 -21 147 -304 187 -370 18 -30 41 -71 51 -90 44 -82 274 -423 319 -474 6
-6 33 -40 60 -76 28 -36 52 -67 55 -70 5 -5 35 -39 132 -151 130 -150 373
-381 558 -528 52 -42 97 -78 100 -81 3 -3 21 -17 40 -30 19 -13 40 -29 47 -35
17 -14 36 -28 55 -40 8 -5 62 -41 119 -80 106 -71 128 -86 164 -105 11 -6 29
-16 40 -23 128 -78 428 -236 458 -241 7 -1 23 -8 37 -16 14 -8 27 -15 30 -15
3 0 21 -8 40 -17 112 -53 523 -198 560 -198 9 0 20 -3 24 -7 3 -4 12 -8 19 -9
7 -1 48 -11 92 -23 44 -11 91 -22 105 -25 14 -2 44 -9 68 -15 24 -7 56 -14 72
-16 16 -2 38 -6 49 -10 11 -3 35 -8 53 -10 18 -2 44 -6 58 -10 25 -5 75 -13
140 -20 19 -2 55 -7 80 -10 25 -4 65 -8 90 -10 25 -2 81 -7 125 -11 102 -10
583 -11 695 -1 159 13 205 18 230 22 14 2 52 7 85 11 33 3 69 8 80 11 11 2 36
6 55 9 42 6 75 12 75 14 0 1 17 3 38 6 21 2 57 9 80 15 23 6 50 13 59 15 10 2
28 6 41 9 12 3 33 7 47 10 14 3 50 12 80 21 30 9 62 17 70 18 8 2 35 9 60 16
25 8 48 14 53 16 4 1 8 2 10 4 1 1 9 3 17 5 17 3 192 63 230 78 14 6 31 11 37
13 15 3 30 9 183 76 63 27 125 52 138 55 12 3 22 9 22 14 0 5 6 9 13 9 18 0
228 109 360 186 60 35 111 64 113 64 3 0 10 5 17 11 7 6 50 34 97 64 47 29 92
61 101 69 9 9 21 16 27 16 7 0 12 4 12 8 0 4 15 16 33 27 17 10 34 21 37 24 3
3 43 35 90 71 47 35 87 68 88 72 2 4 8 8 13 8 5 0 17 8 27 17 10 10 47 43 82
73 151 130 470 446 470 466 0 3 10 15 23 28 65 66 233 281 327 421 36 53 70
101 75 108 6 7 17 26 25 42 8 17 22 38 32 48 9 11 27 40 40 65 12 26 25 49 28
52 3 3 11 16 18 29 65 114 57 99 140 266 27 55 58 120 69 145 11 25 30 66 42
92 48 107 176 468 187 527 3 14 7 28 10 33 3 4 7 18 10 30 7 32 9 40 17 63 3
11 8 31 11 45 3 14 10 43 16 65 5 22 13 56 16 75 3 19 8 38 10 41 2 4 6 24 9
45 4 22 9 48 12 59 3 11 7 36 8 56 1 20 5 40 8 45 4 8 15 76 22 144 1 14 6 50
10 80 40 295 40 838 0 1140 -17 124 -22 158 -30 170 -3 5 -1 10 5 10 7 0 8 6
0 19 -5 11 -12 37 -15 58 -11 83 -35 199 -71 336 -9 32 -17 67 -19 78 -2 11
-9 34 -14 52 -20 63 -43 138 -45 150 -2 7 -5 19 -9 27 -3 8 -17 51 -32 95 -15
44 -31 89 -35 100 -5 11 -27 66 -49 121 -59 150 -182 412 -242 514 -14 25 -52
90 -84 145 -32 55 -91 149 -132 209 -40 59 -73 111 -73 115 0 4 -9 13 -20 21
-11 8 -20 18 -20 23 0 5 -18 32 -40 61 -22 28 -49 62 -60 76 -44 58 -115 145
-120 150 -4 3 -36 39 -71 80 -105 124 -372 386 -483 475 -28 22 -61 51 -75 63
-14 13 -84 68 -156 121 -215 161 -423 293 -665 421 -14 7 -32 17 -40 21 -8 5
-28 15 -45 23 -16 7 -68 32 -115 54 -131 61 -181 82 -196 82 -8 0 -14 5 -14
10 0 6 -3 9 -7 8 -5 0 -17 2 -28 7 -208 80 -446 157 -549 176 -126 23 -274 -9
-383 -81 -73 -49 -91 -65 -128 -115 -17 -22 -32 -42 -35 -45 -10 -9 -59 -128
-67 -160 -13 -56 -21 -169 -13 -190 1 -3 3 -16 5 -30 8 -71 68 -197 126 -264
81 -93 150 -129 394 -206 232 -72 404 -145 660 -279 67 -35 81 -44 142 -83 23
-16 44 -28 47 -28 8 0 259 -173 282 -194 7 -6 24 -20 39 -30 14 -11 34 -27 44
-35 10 -9 40 -34 67 -56 133 -109 329 -307 448 -450 81 -99 83 -100 133 -168
25 -34 48 -64 52 -67 7 -6 29 -39 38 -60 4 -8 9 -17 12 -20 3 -3 20 -25 36
-50 16 -25 34 -48 40 -52 5 -4 7 -8 3 -8 -4 0 9 -26 30 -59 46 -74 75 -124 76
-133 1 -3 4 -9 8 -13 14 -15 125 -249 172 -365 15 -36 31 -74 36 -85 4 -11 19
-51 32 -90 13 -38 26 -72 31 -73 4 -2 5 -7 2 -11 -2 -5 7 -42 20 -83 23 -69
48 -165 61 -228 3 -14 9 -41 15 -61 5 -20 11 -49 13 -65 3 -16 12 -72 20 -124
33 -208 41 -317 41 -575 0 -203 -6 -342 -20 -440 -2 -16 -7 -55 -10 -85 -3
-30 -11 -74 -16 -98 -5 -24 -7 -48 -4 -53 4 -5 2 -9 -2 -9 -5 0 -10 -12 -11
-27 -3 -34 -7 -56 -20 -108 -6 -22 -13 -51 -16 -65 -8 -38 -13 -59 -36 -135
-11 -38 -23 -79 -26 -90 -8 -32 -11 -39 -17 -55 -3 -8 -16 -44 -27 -80 -12
-36 -25 -74 -30 -85 -5 -11 -19 -45 -31 -75 -11 -30 -32 -76 -46 -102 -13 -26
-24 -50 -23 -53 0 -5 -85 -177 -119 -241 -59 -110 -218 -356 -233 -362 -4 -2
-8 -8 -8 -13 0 -8 -80 -116 -138 -185 -9 -11 -37 -45 -62 -75 -46 -55 -336
-348 -380 -384 -14 -11 -63 -51 -110 -89 -47 -37 -95 -77 -108 -87 -12 -10
-26 -19 -30 -19 -4 0 -20 -11 -35 -25 -15 -14 -27 -22 -27 -18 0 4 -5 0 -11
-9 -5 -10 -16 -18 -24 -18 -7 0 -15 -3 -17 -7 -4 -10 -65 -53 -74 -53 -4 0
-21 -10 -38 -23 -65 -49 -293 -171 -456 -245 -75 -33 -272 -112 -292 -116 -7
-2 -21 -6 -30 -9 -24 -9 -48 -17 -51 -16 -1 0 -15 -5 -32 -11 -67 -26 -331
-92 -420 -105 -11 -2 -20 -4 -20 -5 0 -1 -9 -3 -20 -4 -11 -2 -36 -6 -55 -9
-19 -3 -57 -9 -85 -12 -27 -4 -61 -8 -75 -10 -14 -3 -54 -7 -90 -10 -36 -3
-90 -8 -120 -10 -67 -6 -383 -6 -465 0 -116 8 -199 16 -205 20 -3 2 -33 6 -68
9 -34 3 -73 8 -85 11 -27 6 -71 14 -112 20 -16 3 -41 7 -55 10 -14 3 -36 8
-50 11 -14 3 -34 8 -45 11 -11 4 -24 7 -30 8 -23 3 -208 56 -310 90 -150 50
-374 144 -510 216 -107 56 -185 100 -191 110 -3 5 -10 7 -15 4 -5 -4 -12 1
-15 9 -3 9 -11 16 -18 16 -13 0 -171 103 -210 138 -15 12 -29 22 -34 22 -4 0
-38 25 -77 56 -38 30 -83 66 -100 79 -62 48 -263 232 -294 268 -9 11 -44 48
-78 83 -73 76 -293 348 -293 362 0 6 -3 12 -8 14 -10 4 -74 96 -92 131 -7 15
-17 27 -22 27 -4 0 -8 4 -8 8 0 8 -89 164 -107 187 -20 26 -175 351 -188 395
-4 14 -11 30 -15 35 -4 6 -13 26 -18 45 -6 19 -22 65 -36 102 -14 38 -22 68
-19 68 3 0 1 6 -4 13 -10 11 -23 57 -21 67 1 3 -4 15 -10 26 -6 12 -14 36 -17
54 -3 18 -10 41 -16 51 -5 11 -7 19 -5 19 3 0 2 10 -3 23 -5 13 -12 39 -15 58
-9 55 -15 79 -20 88 -3 4 -8 32 -11 60 -2 29 -9 60 -15 70 -5 10 -7 20 -5 23
3 3 1 29 -5 59 -5 30 -12 83 -16 119 -3 36 -8 74 -10 85 -4 19 -17 306 -17
350 2 73 14 314 17 332 3 12 7 50 10 85 4 35 8 72 10 83 2 12 8 48 12 80 4 33
9 62 9 65 10 37 15 61 20 90 3 19 10 53 16 75 6 22 11 48 12 58 1 9 5 17 10
17 4 0 6 4 3 9 -3 4 4 39 15 77 11 38 21 74 23 79 1 6 11 37 21 70 10 33 19
65 20 70 2 6 12 33 23 60 11 28 31 79 46 115 14 36 26 71 26 78 0 6 5 12 10
12 6 0 10 7 10 15 0 12 124 273 150 315 5 8 30 51 56 95 25 44 51 83 57 87 7
4 9 8 4 8 -8 0 113 181 144 216 11 11 19 24 19 28 0 4 13 21 30 39 16 18 30
35 30 38 0 3 10 17 23 31 12 13 40 47 62 73 113 138 318 341 465 461 19 16 37
31 40 35 3 3 41 32 85 65 44 32 82 61 85 64 3 4 22 16 43 29 21 13 43 28 50
34 19 18 50 37 70 43 9 4 17 10 17 14 0 5 10 12 23 16 12 4 24 10 27 13 8 11
122 75 235 133 142 74 385 179 445 194 8 2 53 16 100 32 47 16 112 37 145 47
108 32 186 76 251 141 61 61 139 178 129 194 -3 5 -1 10 4 12 5 1 12 20 15 42
4 21 9 42 12 47 5 9 6 153 1 179 -12 60 -43 138 -73 189 -62 104 -192 206
-301 236 -15 5 -35 10 -43 12 -42 12 -190 10 -240 -4z"/>
<path d="M4775 6893 c-90 -8 -225 -56 -275 -97 -8 -7 -430 -426 -938 -932
-507 -505 -927 -920 -932 -922 -6 -2 -10 -10 -10 -17 0 -8 -9 -17 -20 -20 -11
-3 -20 -12 -21 -18 0 -7 -27 -34 -59 -62 -32 -27 -59 -55 -59 -62 -1 -6 -10
-15 -21 -18 -11 -3 -20 -12 -20 -18 -1 -7 -19 -25 -40 -42 -21 -16 -39 -34
-40 -38 0 -5 -13 -19 -29 -33 -80 -67 -156 -252 -152 -369 5 -174 81 -319 225
-433 67 -53 216 -99 311 -96 101 3 217 34 256 70 8 8 20 14 25 14 8 0 21 10
90 70 12 10 26 24 30 32 5 7 37 39 71 71 34 31 58 57 55 57 -4 0 0 4 7 9 8 6
296 290 640 634 599 597 629 625 701 660 41 20 86 39 100 41 14 3 36 8 50 11
27 6 155 7 180 2 59 -13 113 -33 165 -60 50 -26 179 -150 791 -760 402 -401
753 -744 780 -761 114 -75 253 -107 373 -84 25 5 56 10 68 12 54 10 160 75
222 136 108 105 153 210 157 365 3 114 -18 193 -76 289 -51 83 -2225 2253
-2300 2295 -74 41 -134 61 -200 67 -30 3 -59 6 -65 8 -5 1 -23 0 -40 -1z"/>
</g>
</svg>
