<svg id="Layer_1" data-name="Layer 1" xmlns="http://www.w3.org/2000/svg" viewBox="0 0 367.5 121.15"><defs><style>.cls-1{fill:#ee3f5e;}.cls-2{fill:#1197d4;}.cls-3{fill:#0898d6;}.cls-4{fill:#ef3f5e;}</style></defs><title>Artboard 3</title><path class="cls-1" d="M9.12,32.52,0,37.61l.28.48c3.27,5.57,4.92,13.52,4.92,23.62V90.36H15.75V59.95c0-10.57-2.14-19.64-6.36-27Z"/><path class="cls-1" d="M51.86,48.58a6.79,6.79,0,1,1-6.79-6.79,6.8,6.8,0,0,1,6.79,6.79m5.82-12.9c-3.22-3.3-7.43-4.91-12.86-4.91a16.3,16.3,0,0,0-12.53,5.16,17.94,17.94,0,0,0-4.63,12.6,18.09,18.09,0,0,0,4.58,12.59,15.74,15.74,0,0,0,12.33,5.26,17.53,17.53,0,0,0,5-.68L51.86,65V90.36H62.49V48.53c0-5.26-1.62-9.58-4.81-12.86"/><circle class="cls-2" cx="107.06" cy="44.04" r="4.85"/><path class="cls-2" d="M206,55.41a17.49,17.49,0,0,0-16.13,24.24h-6.23a7.25,7.25,0,0,1-7.25-7.25V32.52H165.65V72.58a17.8,17.8,0,0,0,17.8,17.8H206a17.48,17.48,0,1,0,0-35Zm0,24.28v0h-.71a6.79,6.79,0,1,1,.71,0Z"/><path class="cls-2" d="M128.36,79.7h12.38a6.73,6.73,0,0,0,4.76-11.48L134.79,57.5l7-7.92L153.31,61.1c10.81,10.81,3.15,29.29-12.13,29.29H128.36Z"/><circle class="cls-2" cx="92.49" cy="44.04" r="4.85"/><path class="cls-2" d="M105.12,55.42H86.66L84,66.14h3.66V72.9h0a17.48,17.48,0,1,0,17.48-17.48Zm0,24.28a6.8,6.8,0,0,1-6.8-6.8V66.1h6.8a6.8,6.8,0,1,1,0,13.59Z"/><path class="cls-3" d="M305.95,121.15A61.56,61.56,0,0,1,289.58.25a6.9,6.9,0,0,1,3.66,13.31,47.75,47.75,0,1,0,25.41,0A6.9,6.9,0,0,1,322.32.25a61.56,61.56,0,0,1-16.37,120.9Z"/><path class="cls-4" d="M283.63,72.61l10.92-10.92L301.23,55l0,0,0,0a6.77,6.77,0,0,1,4.72-1.91h0A6.77,6.77,0,0,1,310.67,55l0,0,0,0,6.22,6.22,11.37,11.37a6.79,6.79,0,0,0,9.61,0h0a6.79,6.79,0,0,0,0-9.61L326.5,51.63,310.75,35.88h0a6.79,6.79,0,0,0-9.61,0h0l-16.2,16.2L274,63a6.79,6.79,0,0,0,0,9.61h0A6.79,6.79,0,0,0,283.63,72.61Z"/></svg>