<?xml version="1.0" encoding="utf-8"?>
<!-- Generator: Adobe Illustrator 19.2.1, SVG Export Plug-In . SVG Version: 6.00 Build 0)  -->
<svg version="1.1" id="Layer_1" xmlns="http://www.w3.org/2000/svg" xmlns:xlink="http://www.w3.org/1999/xlink" x="0px" y="0px"
	 width="57.237133px" height="57.237133px" viewBox="0 0 57.237133 57.237133" enable-background="new 0 0 57.237133 57.237133" xml:space="preserve">
<g>
	<g>
		<path fill="#FFFFFF" d="M24.4268055,19.3391514c0-2.4672489,2.0073166-4.4745655,4.4745655-4.4745655
			c2.3022976,0,4.2022781,1.748457,4.446209,3.986702c0.3013649-0.1338863,0.632885-0.2114239,0.9833717-0.2114239
			c0.3293571,0,0.6429405,0.0671844,0.9298553,0.1863804c-0.2642822-3.2700777-3.0045357-5.8514652-6.3416176-5.8514652
			c-3.5113602,0-6.3682251,2.8563814-6.3682251,6.3677425v7.2760448h1.8758411V19.3391514z"/>
		<path fill="#8E9FAD" d="M21.8114662,19.342762c0-3.9255381,3.1821251-7.1077242,7.107542-7.1077242
			c3.9219875,0,7.1015263,3.1768885,7.1070614,7.0973711c0.4552345,0.4428329,0.740345,1.0595245,0.740345,1.742918v-1.7328053
			c0-4.3271942-3.520031-7.8472242-7.8472252-7.8472242s-7.8477058,3.52003-7.8477058,7.8472242v7.2760448h0.7399826V19.342762z"/>
		<path fill="#8E9FAD" d="M22.5509644,19.3425217c0-3.5113611,2.8568649-6.3677425,6.3682251-6.3677425
			c3.3370819,0,6.0773354,2.5813875,6.3416176,5.8514652c0.2872124,0.1191959,0.5456543,0.2925739,0.7652626,0.5061646
			c-0.0055351-3.9204826-3.1850739-7.0973711-7.1070614-7.0973711c-3.9254169,0-7.107542,3.1821861-7.107542,7.1077242v7.2758045
			h0.7394981V19.3425217z"/>
		<path fill="#8E9FAD" d="M25.166666,19.3389091c0-2.0624599,1.6720028-3.7345829,3.7345848-3.7345829
			c2.0604744,0,3.7309093,1.668993,3.7341595,3.7288036c0.2057076-0.200346,0.4464455-0.3636093,0.7121696-0.481842
			c-0.2439308-2.238245-2.1439114-3.986702-4.446209-3.986702c-2.4672489,0-4.4745655,2.0073166-4.4745655,4.4745655v7.2794151
			h0.7398605V19.3389091z"/>
		<path fill="#8E9FAD" d="M25.9062862,19.3391514c0-1.6514149,1.3436699-2.9950848,2.9950848-2.9950848
			c1.651413,0,2.9946022,1.3436699,2.9946022,2.9950848v1.7361755c0-0.6831532,0.2847481-1.2996044,0.7394371-1.742197
			c-0.0032501-2.0598106-1.6736851-3.7288036-3.7341595-3.7288036c-2.062582,0-3.7345848,1.672123-3.7345848,3.7345829v7.2796574
			h0.7396202V19.3391514z"/>
		<path fill="#FFFFFF" d="M28.9191895,40.9500809c-4.3271942,0-7.8477058-3.520031-7.8477058-7.8472252v-5.0048084h-1.0465221
			v13.8084965h18.0311832V28.0980473h-1.2897301v5.0048084C36.7664146,37.4300499,33.2463837,40.9500809,28.9191895,40.9500809z"/>
		<path fill="#FFFFFF" d="M28.9191895,39.4706001c3.5113602,0,6.3677444-2.8563805,6.3677444-6.3677444v-5.0048084h-1.9114799
			v0.0770569c0,2.138073-1.5081367,3.9281864-3.5159359,4.3681316c0.2521782,0.225872,0.4139366,0.5504723,0.4139366,0.9155235
			v3.0875511c0,0.6809883-0.5519161,1.2329025-1.2329006,1.2329025c-0.6809864,0-1.2329025-0.5519142-1.2329025-1.2329025
			v-3.0875511c0-0.3419342,0.1394253-0.651123,0.364212-0.8743477c-2.1207352-0.3501244-3.7450581-2.1910477-3.7450581-4.4093075
			v-0.0770569h-1.8758411v5.0048084C22.5509644,36.6142197,25.4078293,39.4706001,28.9191895,39.4706001z"/>
		<path fill="#FFFFFF" d="M28.9190083,40.2103424c-3.9254169,0-7.107542-3.1821861-7.107542-7.1074867v-5.0048084h-0.7399826
			v5.0048084c0,4.3271942,3.5205116,7.8472252,7.8477058,7.8472252s7.8472252-3.520031,7.8472252-7.8472252v-5.0048084h-0.7397995
			v5.0048084C36.0266151,37.0281563,32.844429,40.2103424,28.9190083,40.2103424z"/>
		<path fill="#FFFFFF" d="M35.2869339,33.1028557c0,3.511364-2.8563843,6.3677444-6.3677444,6.3677444
			s-6.3682251-2.8563805-6.3682251-6.3677444v-5.0048084h-0.7394981v5.0048084c0,3.9253006,3.1821251,7.1074867,7.107542,7.1074867
			s7.1076069-3.1821861,7.1076069-7.1074867v-5.0048084h-0.7396812V33.1028557z"/>
		<path fill="#FFFFFF" d="M25.9062862,28.1751041c0,1.651413,1.3436699,2.9946022,2.9950848,2.9946022
			c1.651413,0,2.9946022-1.3431892,2.9946022-2.9946022v-0.0770569h-5.989687V28.1751041z"/>
		<path fill="#FFFFFF" d="M32.6357117,28.1751041c0,2.0627022-1.6720009,3.7345829-3.7344608,3.7345829
			c-2.062582,0-3.7345848-1.6718807-3.7345848-3.7345829v-0.0770569h-0.7398605v0.0770569
			c0,2.2182598,1.6243229,4.0591831,3.7450581,4.4093075c0.2228622-0.2215347,0.5296421-0.358551,0.8686905-0.358551
			c0.3158092,0,0.6007977,0.1223259,0.818964,0.3173752c2.0077991-0.4399452,3.5159359-2.2300587,3.5159359-4.3681316v-0.0770569
			h-0.7397423V28.1751041z"/>
		<path fill="#FFFFFF" d="M31.8959732,28.1751041c0,1.651413-1.3431892,2.9946022-2.9946022,2.9946022
			c-1.6514149,0-2.9950848-1.3431892-2.9950848-2.9946022v-0.0770569H25.166666v0.0770569
			c0,2.0627022,1.6720028,3.7345829,3.7345848,3.7345829c2.0624599,0,3.7344608-1.6718807,3.7344608-3.7345829v-0.0770569
			h-0.7397385V28.1751041z"/>
		<polygon fill="#8E9FAD" points="36.7664146,26.6185665 36.7664146,27.3585472 38.7957649,27.3585472 38.7957649,42.6465263 
			19.2851009,42.6465263 19.2851009,27.3585472 21.0714836,27.3585472 21.0714836,26.6185665 18.5454807,26.6185665 
			18.5454807,43.3860245 39.5356255,43.3860245 39.5356255,26.6185665 		"/>
		<rect x="33.3754539" y="26.6185665" fill="#8E9FAD" width="1.9114788" height="0.7399816"/>
		<rect x="22.5509644" y="26.6185665" fill="#8E9FAD" width="1.8758402" height="0.7399816"/>
		<rect x="36.0266151" y="26.6185665" fill="#8E9FAD" width="0.739801" height="0.7399816"/>
		<rect x="21.0714836" y="26.6185665" fill="#8E9FAD" width="0.7399816" height="0.7399816"/>
		<rect x="35.2869339" y="26.6185665" fill="#8E9FAD" width="0.7396806" height="0.7399816"/>
		<rect x="21.8114662" y="26.6185665" fill="#8E9FAD" width="0.7395" height="0.7399816"/>
		<rect x="25.9062862" y="26.6185665" fill="#8E9FAD" width="5.9896851" height="0.7399816"/>
		<rect x="32.6357117" y="26.6185665" fill="#8E9FAD" width="0.7397408" height="0.7399816"/>
		<rect x="24.4268055" y="26.6185665" fill="#8E9FAD" width="0.7398612" height="0.7399816"/>
		<rect x="31.8959732" y="26.6185665" fill="#8E9FAD" width="0.7397408" height="0.7399816"/>
		<rect x="25.166666" y="26.6185665" fill="#8E9FAD" width="0.7396204" height="0.7399816"/>
		<polygon fill="#8E9FAD" points="38.0561447,28.0980473 38.0561447,41.9065437 20.0249615,41.9065437 20.0249615,28.0980473 
			21.0714836,28.0980473 21.0714836,27.3585472 19.2851009,27.3585472 19.2851009,42.6465263 38.7957649,42.6465263 
			38.7957649,27.3585472 36.7664146,27.3585472 36.7664146,28.0980473 		"/>
		<rect x="33.3754539" y="27.3585472" fill="#8E9FAD" width="1.9114788" height="0.7395"/>
		<rect x="22.5509644" y="27.3585472" fill="#8E9FAD" width="1.8758402" height="0.7395"/>
		<rect x="21.0714836" y="27.3585472" fill="#8E9FAD" width="0.7399816" height="0.7395"/>
		<rect x="36.0266151" y="27.3585472" fill="#8E9FAD" width="0.739801" height="0.7395"/>
		<rect x="21.8114662" y="27.3585472" fill="#8E9FAD" width="0.7395" height="0.7395"/>
		<rect x="35.2869339" y="27.3585472" fill="#8E9FAD" width="0.7396806" height="0.7395"/>
		<rect x="25.9062862" y="27.3585472" fill="#8E9FAD" width="5.9896851" height="0.7395"/>
		<rect x="32.6357117" y="27.3585472" fill="#8E9FAD" width="0.7397408" height="0.7395"/>
		<rect x="24.4268055" y="27.3585472" fill="#8E9FAD" width="0.7398612" height="0.7395"/>
		<rect x="31.8959732" y="27.3585472" fill="#8E9FAD" width="0.7397408" height="0.7395"/>
		<rect x="25.166666" y="27.3585472" fill="#8E9FAD" width="0.7396204" height="0.7395"/>
		<path fill="#8E9FAD" d="M28.1718636,32.5844116c-0.2247868,0.2232246-0.364212,0.5324135-0.364212,0.8743477v3.0875511
			c0,0.6809883,0.5519161,1.2329025,1.2329025,1.2329025c0.6809845,0,1.2329006-0.5519142,1.2329006-1.2329025v-3.0875511
			c0-0.3650513-0.1617584-0.6896515-0.4139366-0.9155235c-0.3090687,0.0679054-0.6290321,0.1059532-0.958147,0.1059532
			C28.6524429,32.649189,28.4098949,32.623661,28.1718636,32.5844116z"/>
		<path fill="#8E9FAD" d="M28.1718636,32.5844116c0.2380314,0.0392494,0.4805794,0.0647774,0.7295074,0.0647774
			c0.3291149,0,0.6490784-0.0380478,0.958147-0.1059532c-0.2181664-0.1950493-0.5031548-0.3173752-0.818964-0.3173752
			C28.7015057,32.2258606,28.3947258,32.3628769,28.1718636,32.5844116z"/>
		<circle fill="#FFFFFF" cx="34.3310738" cy="21.0752068" r="0.9557394"/>
		<path fill="#8E9FAD" d="M33.34758,18.8512878c0.0175209,0.1603737,0.027874,0.3229141,0.027874,0.4878635v0.3366394
			c0.2722244-0.1861401,0.6009178-0.2959442,0.9557381-0.2959442c0.354763,0,0.6835136,0.1098042,0.9557419,0.2959442v-0.3332691
			c0-0.1743393-0.0123405-0.3455486-0.0261269-0.5162773c-0.2869148-0.1191959-0.6004982-0.1863804-0.9298553-0.1863804
			C33.9804649,18.639864,33.6489449,18.7174015,33.34758,18.8512878z"/>
		<path fill="#8E9FAD" d="M33.3754539,22.4748611v0.8391933c0.2936554,0.1256981,0.6163292,0.1962528,0.9554977,0.1962528
			c0.3392906,0,0.6622047-0.0705547,0.9559822-0.1964951v-0.8391914c-0.2722282,0.1863804-0.6009789,0.2961864-0.9557419,0.2961864
			C33.9763718,22.7708073,33.6476784,22.6610012,33.3754539,22.4748611z"/>
		<path fill="#8E9FAD" d="M36.0260696,19.3324089c0,0.0036106,0.0005455,0.0067425,0.0005455,0.0103531v1.7325649v1.7421951
			c0.4548721-0.4428329,0.7397995-1.0588017,0.7397995-1.7421951S36.4813042,19.7752419,36.0260696,19.3324089z"/>
		<path fill="#8E9FAD" d="M35.2869339,19.3425217v0.3332691c0.4462624,0.3055763,0.7396812,0.8180008,0.7396812,1.3995361V19.342762
			c0-0.0036106-0.0005455-0.0067425-0.0005455-0.0103531c-0.2196083-0.2135906-0.4780502-0.3869686-0.7652626-0.5061646
			C35.2745934,18.996973,35.2869339,19.1681824,35.2869339,19.3425217z"/>
		<path fill="#8E9FAD" d="M35.2869339,22.4746208v0.8391914c0.2771606-0.1189556,0.5265694-0.2889614,0.7396812-0.4962902
			v-1.7421951C36.0266151,21.6568604,35.7331963,22.1692848,35.2869339,22.4746208z"/>
		<path fill="#8E9FAD" d="M32.6357117,19.3389091v1.7364178c0-0.5817757,0.2934189-1.0942001,0.7397423-1.3995361v-0.3366394
			c0-0.1649494-0.0103531-0.3274899-0.027874-0.4878635c-0.2657242,0.1182327-0.5064621,0.281496-0.7121696,0.481842
			C32.6354103,19.3350563,32.6357117,19.3369827,32.6357117,19.3389091z"/>
		<path fill="#8E9FAD" d="M32.6357117,21.0753269v1.7421951c0.2131119,0.207571,0.4625206,0.3778172,0.7397423,0.4965324v-0.8391933
			C32.9291306,22.1692848,32.6357117,21.6568604,32.6357117,21.0753269z"/>
		<path fill="#8E9FAD" d="M31.8959732,21.0753269c0,0.6833935,0.2848663,1.2996025,0.7397385,1.7421951v-1.7421951v-1.7364178
			c0-0.0019264-0.0003014-0.0038528-0.0003014-0.0057793C32.1807213,19.7757225,31.8959732,20.3921738,31.8959732,21.0753269z"/>
		<path fill="#8E9FAD" d="M34.3309517,22.0308247c-0.5268707,0-0.9554977-0.4286251-0.9554977-0.9554977v1.3995342
			c0.2722244,0.1861401,0.6009178,0.2959461,0.9557381,0.2959461c0.354763,0,0.6835136-0.1098061,0.9557419-0.2961864v-1.3992939
			C35.2869339,21.6021996,34.8583069,22.0308247,34.3309517,22.0308247z"/>
		<path fill="#8E9FAD" d="M33.3754539,19.6757908v1.3995361c0-0.5273552,0.428627-0.9559803,0.9554977-0.9559803
			c0.5273552,0,0.9559822,0.4286251,0.9559822,0.9559803v-1.3995361c-0.2722282-0.1861401-0.6009789-0.2959442-0.9557419-0.2959442
			C33.9763718,19.3798466,33.6476784,19.4896507,33.3754539,19.6757908z"/>
		<path fill="#8E9FAD" d="M35.2869339,19.6757908v1.3995361v1.3992939c0.4462624-0.305336,0.7396812-0.8177605,0.7396812-1.3992939
			C36.0266151,20.4937916,35.7331963,19.9813671,35.2869339,19.6757908z"/>
		<path fill="#8E9FAD" d="M32.6357117,21.0753269c0,0.5815334,0.2934189,1.0939579,0.7397423,1.3995342v-1.3995342v-1.3995361
			C32.9291306,19.9811268,32.6357117,20.4935513,32.6357117,21.0753269z"/>
	</g>
	
		<circle fill="none" stroke="#69C6E2" stroke-width="3" stroke-linecap="round" stroke-miterlimit="10" cx="28.6185665" cy="28.6185665" r="27.1185665"/>
</g>
</svg>
