<?xml version="1.0" encoding="utf-8"?>
<!-- Generator: Adobe Illustrator 19.2.1, SVG Export Plug-In . SVG Version: 6.00 Build 0)  -->
<svg version="1.1" id="Layer_1" xmlns="http://www.w3.org/2000/svg" xmlns:xlink="http://www.w3.org/1999/xlink" x="0px" y="0px"
	 width="32px" height="32px" viewBox="0 0 32 32" enable-background="new 0 0 32 32" xml:space="preserve">
<g>
	<path fill="#009BDB" d="M15.9999971,2.500031c7.4439383,0,13.499999,6.0561528,13.499999,13.5s-6.0560608,13.5-13.499999,13.5
		s-13.5-6.0561523-13.5-13.5S8.5560579,2.500031,15.9999971,2.500031 M15.9999971,0.0000311c-8.8365479,0-16,7.1635742-16,15.999999
		s7.1634521,16,16,16s15.999999-7.1635742,15.999999-16S24.836544,0.0000311,15.9999971,0.0000311L15.9999971,0.0000311z"/>
</g>
<polyline fill="none" stroke="#009BDB" stroke-width="2.5" stroke-miterlimit="10" points="21.8092289,12.1003685 
	16.0504322,17.8591652 10.2916365,12.1003685 "/>
<line fill="none" stroke="#009BDB" stroke-width="2.5" stroke-miterlimit="10" x1="16.0504322" y1="17.8591652" x2="16.0504322" y2="6.3503623"/>
<line fill="none" stroke="#009BDB" stroke-width="2.5" stroke-miterlimit="10" x1="22.8609486" y1="22.8752556" x2="9.1390514" y2="22.8752556"/>
</svg>
