<?xml version="1.0" encoding="utf-8"?>
<!-- Generator: Adobe Illustrator 19.2.1, SVG Export Plug-In . SVG Version: 6.00 Build 0)  -->
<svg version="1.1" id="Layer_1" xmlns="http://www.w3.org/2000/svg" xmlns:xlink="http://www.w3.org/1999/xlink" x="0px" y="0px"
	 width="32px" height="32px" viewBox="0 0 32 32" enable-background="new 0 0 32 32" xml:space="preserve">
<g>
	<g>
		<path fill="#009BDB" d="M16.0001392,31.4995422c-8.546875,0-15.5-6.953125-15.5-15.499999s6.953125-15.5,15.5-15.5
			s15.5,6.953125,15.5,15.5S24.5470142,31.4995422,16.0001392,31.4995422z"/>
		<path fill="#0D9AD7" d="M15.9999866,1.0000311c8.2842712,0,15,6.7158203,15,14.999999s-6.7157288,15-15,15s-15-6.7158203-15-15
			S7.7157154,1.0000311,15.9999866,1.0000311 M15.9999866,0.0000311c-8.8224182,0-16,7.1777344-16,15.999999s7.1775818,16,16,16
			s16-7.1777344,16-16S24.8224049,0.0000311,15.9999866,0.0000311L15.9999866,0.0000311z"/>
	</g>
	<polyline fill="none" stroke="#FFFFFF" stroke-width="2" stroke-miterlimit="10" points="21.8092289,12.1003685 
		16.0504322,17.8591652 10.2916365,12.1003685 	"/>
	
		<line fill="none" stroke="#FFFFFF" stroke-width="2" stroke-miterlimit="10" x1="16.0504322" y1="17.8591652" x2="16.0504322" y2="6.3503623"/>
	
		<line fill="none" stroke="#FFFFFF" stroke-width="2" stroke-miterlimit="10" x1="22.8609486" y1="22.8752556" x2="9.1390514" y2="22.8752556"/>
</g>
</svg>
