<?xml version="1.0" encoding="utf-8"?>
<!-- Generator: Adobe Illustrator 19.2.1, SVG Export Plug-In . SVG Version: 6.00 Build 0)  -->
<svg version="1.1" id="Layer_1" xmlns="http://www.w3.org/2000/svg" xmlns:xlink="http://www.w3.org/1999/xlink" x="0px" y="0px"
	 width="32.5px" height="32.5px" viewBox="0 0 32.5 32.5" enable-background="new 0 0 32.5 32.5" xml:space="preserve">
<g>
	<path fill="#009BDB" d="M21.9612732,10.9399414h9.6333618c-0.3001709-0.8671875-0.6591187-1.706543-1.0949707-2.5H16.2501526
		c-3.5074463,0-6.4810791,2.3237305-7.4642944,5.5126953l-3.0039673-5.203125L4.0101624,5.5839844
		C3.4023743,6.2807617,2.8575745,7.0302734,2.3743591,7.8242188l0.1135864,0.2075195L2.4830627,8.0356445L2.624176,8.2797852
		l0.0205078-0.0117188l6.8984375,11.9960938l0.0149536-0.0087891c1.3666382,2.2744141,3.8508301,3.8046875,6.6920776,3.8046875
		c0.5933838,0,1.1691895-0.0722656,1.7249756-0.1982422l-4.7995605,8.3383789
		c0.8841553,0.1694336,1.7943726,0.262207,2.7231445,0.2817383l6.9290771-12.0380859l0.2646484-0.4599609l-0.0098267-0.0058594
		c0.6105347-1.1113281,0.9776001-2.3735352,0.9776001-3.7285156C24.0602112,14.1982422,23.2591858,12.3349609,21.9612732,10.9399414
		z M16.2501526,21.5600586c-2.9282227,0-5.3100586-2.3818359-5.3100586-5.3105469
		c0-2.9277344,2.3818359-5.3095703,5.3100586-5.3095703s5.3100586,2.3818359,5.3100586,5.3095703
		c0,1.0527344-0.3168335,2.0292969-0.847229,2.8554688c-0.0262451,0.0410156-0.0453491,0.0864258-0.0726929,0.1264648
		C19.6837463,20.6352539,18.0735779,21.5600586,16.2501526,21.5600586z"/>
</g>
<g>
	<g>
		<path fill="#009BDB" d="M16.2500057,2.5c7.5817871,0,13.75,6.168457,13.75,13.75S23.8317928,30,16.2500057,30
			C8.6682329,30,2.4999897,23.831543,2.4999897,16.25S8.6682329,2.5,16.2500057,2.5 M16.2500057,0
			C7.2753806,0-0.0000102,7.2753906-0.0000102,16.25S7.2753806,32.5,16.2500057,32.5s16.2499981-7.2753906,16.2499981-16.25
			S25.2246304,0,16.2500057,0L16.2500057,0z"/>
	</g>
</g>
</svg>
