<?xml version="1.0" encoding="utf-8"?>
<!-- Generator: Adobe Illustrator 19.2.1, SVG Export Plug-In . SVG Version: 6.00 Build 0)  -->
<svg version="1.1" id="Layer_1" xmlns="http://www.w3.org/2000/svg" xmlns:xlink="http://www.w3.org/1999/xlink" x="0px" y="0px"
	 width="32.5px" height="32.5px" viewBox="0 0 32.5 32.5" enable-background="new 0 0 32.5 32.5" xml:space="preserve">
<g>
	<path fill="#009BDB" d="M8.7858582,13.9526367c0.9832153-3.1889648,3.9568481-5.5126953,7.4642944-5.5126953h14.2495117
		C27.7372131,3.4106445,22.393158,0,16.2500305,0C11.361969,0,6.9891663,2.168457,4.0101624,5.5839844l1.7717285,3.1655273
		L8.7858582,13.9526367z"/>
	<path fill="#009BDB" d="M21.5602112,16.2495117c0-2.9277344-2.3818359-5.3095703-5.3100586-5.3095703
		s-5.3100586,2.3818359-5.3100586,5.3095703c0,2.9287109,2.3818359,5.3105469,5.3100586,5.3105469
		c1.8234253,0,3.4335938-0.9248047,4.3901367-2.3286133l0.0726929-0.1264648
		C21.2433777,18.2788086,21.5602112,17.3022461,21.5602112,16.2495117z"/>
	<path fill="#009BDB" d="M16.2501526,24.0600586c-2.8412476,0-5.3254395-1.5302734-6.6920776-3.8046875l-0.0149536,0.0087891
		L2.6446838,8.2680664L2.624176,8.2797852L2.4830627,8.0356445l0.0048828-0.0039062L2.3743591,7.8242188
		C0.8777771,10.2836914,0.0000305,13.1606445,0.0000305,16.25c0,7.9223633,5.6724243,14.512207,13.1755371,15.9501953
		l4.7995605-8.3383789C17.419342,23.987793,16.8435364,24.0600586,16.2501526,24.0600586z"/>
	<path fill="#009BDB" d="M24.0602112,16.2495117c0,1.5439453-0.4561768,2.980957-1.2324219,4.1943359l-6.9290771,12.0380859
		C16.0166931,32.4848633,16.1314392,32.5,16.2500305,32.5c8.9746094,0,16.25-7.2753906,16.25-16.25
		c0-1.8623047-0.3287354-3.644043-0.9053955-5.3100586h-9.6333618
		C23.2591858,12.3349609,24.0602112,14.1982422,24.0602112,16.2495117z"/>
	<path fill="#FFFFFF" d="M21.9612732,10.9399414h9.6333618c-0.3001709-0.8671875-0.6591187-1.706543-1.0949707-2.5H16.2501526
		c-3.5074463,0-6.4810791,2.3237305-7.4642944,5.5126953l-3.0039673-5.203125L4.0101624,5.5839844
		C3.4023743,6.2807617,2.8575745,7.0302734,2.3743591,7.8242188l0.1135864,0.2075195L2.4830627,8.0356445L2.624176,8.2797852
		l0.0205078-0.0117188l6.8984375,11.9960938l0.0149536-0.0087891c1.3666382,2.2744141,3.8508301,3.8046875,6.6920776,3.8046875
		c0.5933838,0,1.1691895-0.0722656,1.7249756-0.1982422l-4.7995605,8.3383789
		c0.8841553,0.1694336,1.7943726,0.262207,2.7231445,0.2817383l6.9290771-12.0380859l0.2646484-0.4599609l-0.0098267-0.0058594
		c0.6105347-1.1113281,0.9776001-2.3735352,0.9776001-3.7285156C24.0602112,14.1982422,23.2591858,12.3349609,21.9612732,10.9399414
		z M16.2501526,21.5600586c-2.9282227,0-5.3100586-2.3818359-5.3100586-5.3105469
		c0-2.9277344,2.3818359-5.3095703,5.3100586-5.3095703s5.3100586,2.3818359,5.3100586,5.3095703
		c0,1.0527344-0.3168335,2.0292969-0.847229,2.8554688c-0.0262451,0.0410156-0.0453491,0.0864258-0.0726929,0.1264648
		C19.6837463,20.6352539,18.0735779,21.5600586,16.2501526,21.5600586z"/>
</g>
</svg>
